<svg xmlns="http://www.w3.org/2000/svg" width="25mm" height="25mm" viewBox="0 0 25 25"><g transform="matrix(1.00588 0 0 1.0059 -2.6605 -15.0235)"><path d="M7.5728 14.9353a4.9275 4.9275 0 0 0-4.9279 4.9279v14.9996a4.9275 4.9275 0 0 0 4.9279 4.9258h15a4.9275 4.9275 0 0 0 4.9259-4.9258V19.8632a4.9275 4.9275 0 0 0-4.9258-4.9279Z" style="color:#000;font-style:normal;font-variant:normal;font-weight:400;font-stretch:normal;font-size:medium;line-height:normal;font-family:sans-serif;font-variant-ligatures:normal;font-variant-position:normal;font-variant-caps:normal;font-variant-numeric:normal;font-variant-alternates:normal;font-variant-east-asian:normal;font-feature-settings:normal;font-variation-settings:normal;text-indent:0;text-align:start;text-decoration:none;text-decoration-line:none;text-decoration-style:solid;text-decoration-color:#000;letter-spacing:normal;word-spacing:normal;text-transform:none;writing-mode:lr-tb;direction:ltr;text-orientation:mixed;dominant-baseline:auto;baseline-shift:baseline;text-anchor:start;white-space:normal;shape-padding:0;shape-margin:0;inline-size:0;clip-rule:nonzero;display:inline;overflow:visible;visibility:visible;opacity:1;isolation:auto;mix-blend-mode:normal;color-interpolation:sRGB;color-interpolation-filters:linearRGB;solid-color:#000;solid-opacity:1;vector-effect:none;fill:#a25cae;fill-opacity:1;fill-rule:nonzero;stroke:none;stroke-width:9.85401;stroke-linecap:round;stroke-linejoin:round;stroke-miterlimit:4;stroke-dasharray:none;stroke-dashoffset:0;stroke-opacity:1;color-rendering:auto;image-rendering:auto;shape-rendering:auto;text-rendering:auto;enable-background:accumulate;stop-color:#000"/><circle cx="10.0636" cy="23.2928" r="3.449" style="opacity:1;fill:#fff;fill-opacity:1;stroke:none;stroke-width:4.11053;stroke-linecap:round;stroke-linejoin:round;stroke-miterlimit:4;stroke-dasharray:none;stroke-opacity:1"/><circle cx="20.08" cy="23.3873" r="3.449" style="opacity:1;fill:#000;fill-opacity:1;stroke:none;stroke-width:4.11053;stroke-linecap:round;stroke-linejoin:round;stroke-miterlimit:4;stroke-dasharray:none;stroke-opacity:1"/><path d="m9.3843 28.9786-4.5 3.7259 4.5 3.7258v-2.7336h11.375v2.7336l4.5-3.7258-4.5-3.726v2.7338H9.3843Z" style="opacity:1;fill:#fff596;fill-opacity:1;stroke:none;stroke-width:7.62048;stroke-linecap:round;stroke-linejoin:round;stroke-miterlimit:4;stroke-dasharray:none;stroke-opacity:1"/></g></svg>